Patient4_TMGait_0pt3_03_left_28_GRF.mot
version=1
nRows=45
nColumns=19
inDegrees=no
endheader
time	F1x	F1y	F1z	M1x	M1y	M1z	F2x	F2y	F2z	M2x	M2y	M2z	EC1x	EC1y	EC1z	EC2x	EC2y	EC2z
49.4	2.114	-0.33822	-1.3975	-0.42488	1.5186	0.3591	-32.1623	769.5718	-52.6691	242.5432	66.3977	759.3489	-0.0592	0.0182	-0.0073	-0.0462	0.0165	0.9585
49.4191	1.3145	0.074276	-0.86151	-0.41244	0.86439	0.60555	-29.4097	769.5628	-52.728	242.3887	65.4338	758.2029	-0.0592	0.0182	-0.0073	-0.0462	0.0165	0.9585
49.4381	0.62743	0.43359	-0.4121	-0.40433	0.3198	0.82297	-27.0701	771.3151	-52.7353	242.7879	64.4304	758.3783	-0.0592	0.0182	-0.0073	-0.0462	0.0165	0.9585
49.4572	0.093394	0.7264	-0.07217	-0.40567	-0.090448	1.0012	-25.3486	775.689	-52.709	244.0126	63.4765	760.751	-0.0592	0.0182	-0.0073	-0.0462	0.0165	0.9585
49.4763	-0.28768	0.95621	0.16257	-0.41725	-0.37509	1.1427	-24.2443	783.2439	-52.6747	246.2403	62.6185	765.8856	-0.0592	0.0182	-0.0073	-0.0462	0.0165	0.9585
49.4954	-0.54126	1.1329	0.30932	-0.43738	-0.55862	1.2559	-23.5924	794.0061	-52.6451	249.4838	61.8445	773.7935	-0.0592	0.0182	-0.0073	-0.0462	0.0165	0.9585
49.5144	-0.70433	1.2597	0.3891	-0.45981	-0.66912	1.3407	-23.1511	807.3456	-52.6002	253.5489	61.0851	783.8336	-0.0592	0.0182	-0.0073	-0.0462	0.0165	0.9585
49.5335	-0.81647	1.3296	0.42388	-0.47434	-0.73366	1.3817	-22.6734	821.9787	-52.4879	258.0333	60.2364	794.7437	-0.0592	0.0182	-0.0073	-0.0462	0.0165	0.9585
49.5526	-0.91094	1.3187	0.43426	-0.4656	-0.77697	1.3446	-21.9261	836.1194	-52.2493	262.3743	59.1849	804.8001	-0.0592	0.0182	-0.0073	-0.0462	0.0165	0.9585
49.5716	-1.011	1.1855	0.43377	-0.41228	-0.81678	1.182	-20.7057	847.746	-51.8411	265.9347	57.8314	812.0823	-0.0592	0.0182	-0.0073	-0.0462	0.0165	0.9585
49.5907	-1.131	0.87618	0.43123	-0.28958	-0.86492	0.83714	-18.881	854.9427	-51.2347	268.1095	56.108	814.8053	-0.0592	0.0182	-0.0073	-0.0462	0.0165	0.9585
49.6098	-1.2724	0.32903	0.42862	-0.070561	-0.92084	0.25198	-16.4104	856.285	-50.4093	268.4478	53.9808	811.6873	-0.0592	0.0182	-0.0073	-0.0462	0.0165	0.9585
49.6289	-1.4165	-0.51325	0.41867	0.27047	-0.96898	-0.62877	-13.3216	851.121	-49.3589	266.7447	51.4494	802.2013	-0.0592	0.0182	-0.0073	-0.0462	0.0165	0.9585
49.6479	-1.5251	-1.6763	0.38647	0.74756	-0.98085	-1.8407	-9.6846	839.6464	-48.0964	263.0664	48.5437	786.6274	-0.0592	0.0182	-0.0073	-0.0462	0.0165	0.9585
49.667	-1.5411	-3.1295	0.31081	1.3488	-0.9124	-3.3608	-5.5945	822.8073	-46.6569	257.7163	45.3234	765.947	-0.0592	0.0182	-0.0073	-0.0462	0.0165	0.9585
49.6861	-1.3825	-4.7473	0.16928	2.0199	-0.70774	-5.0661	-1.155	802.1592	-45.1105	251.189	41.8857	741.6849	-0.0592	0.0182	-0.0073	-0.0462	0.0165	0.9585
49.7051	-0.94142	-6.2524	-0.0571	2.6408	-0.30221	-6.6669	3.5267	779.6563	-43.558	244.1022	38.363	715.6979	-0.0592	0.0182	-0.0073	-0.0462	0.0165	0.9585
49.7242	-0.089813	-7.1543	-0.38352	3.0036	0.37551	-7.651	8.3383	757.3424	-42.112	237.0995	34.9049	689.9002	-0.0592	0.0182	-0.0073	-0.0462	0.0165	0.9585
49.7433	1.3012	-6.6989	-0.81721	2.7923	1.3892	-7.2356	13.1534	736.9888	-40.8766	230.7355	31.6584	665.9514	-0.0592	0.0182	-0.0073	-0.0462	0.0165	0.9585
49.7624	3.3314	-3.8372	-1.341	1.5698	2.7658	-4.3308	17.8056	719.7416	-39.926	225.365	28.7536	644.9534	-0.0592	0.0182	-0.0073	-0.0462	0.0165	0.9585
49.7814	6.0231	2.7521	-1.8953	-1.2129	4.4546	2.4392	22.1012	705.9	-39.2877	221.0744	26.2855	627.2555	-0.0592	0.0182	-0.0073	-0.0462	0.0165	0.9585
49.8005	9.2528	14.5503	-2.3591	-6.1668	6.2757	14.6216	25.8448	694.8844	-38.9313	217.6737	24.2979	612.4262	-0.0592	0.0182	-0.0073	-0.0462	0.0165	0.9585
49.8196	12.638	32.9546	-2.5261	-13.8667	7.852	33.6961	28.8516	685.3104	-38.7648	214.7225	22.777	599.3356	-0.0592	0.0182	-0.0073	-0.0462	0.0165	0.9585
49.8386	15.3635	58.9155	-2.1254	-24.6964	8.5614	60.693	30.9473	675.1413	-38.635	211.5773	21.6576	586.3026	-0.0592	0.0182	-0.0073	-0.0462	0.0165	0.9585
49.8577	16.242	92.4868	-0.867	-38.661	7.6098	95.7294	31.9709	662.0282	-38.343	207.4974	20.8317	571.383	-0.0592	0.0182	-0.0073	-0.0462	0.0165	0.9585
49.8768	14.5723	132.9018	1.5207	-55.4169	4.4229	138.0764	31.8058	643.8124	-37.6901	201.8031	20.1707	552.7874	-0.0592	0.0182	-0.0073	-0.0462	0.0165	0.9585
49.8959	10.5995	178.667	5.1889	-74.3149	-1.063	186.1769	30.4249	618.9973	-36.5371	194.0254	19.5669	529.2687	-0.0592	0.0182	-0.0073	-0.0462	0.0165	0.9585
49.9149	5.0225	227.1293	10.0291	-94.2507	-8.4485	237.17	27.9185	587.0971	-34.7999	184.0183	18.9208	500.4035	-0.0592	0.0182	-0.0073	-0.0462	0.0165	0.9585
49.934	-1.2076	274.9521	15.4641	-113.8811	-16.7148	287.4331	24.5149	548.9691	-32.4691	172.0635	18.1495	466.8548	-0.0592	0.0182	-0.0073	-0.0462	0.0165	0.9585
49.9531	-7.2183	319.6483	20.7131	-132.2323	-24.6588	334.2093	20.5753	506.8093	-29.6644	158.8624	17.2268	430.3599	-0.0592	0.0182	-0.0073	-0.0462	0.0165	0.9585
49.9721	-12.464	360.3811	25.2183	-148.9958	-31.4701	376.506	16.5328	463.5968	-26.6326	145.3548	16.2017	393.2853	-0.0592	0.0182	-0.0073	-0.0462	0.0165	0.9585
49.9912	-16.6507	397.2363	28.6904	-164.2213	-36.7373	414.3585	12.7844	422.2051	-23.6684	132.439	15.1698	357.9171	-0.0592	0.0182	-0.0073	-0.0462	0.0165	0.9585
50.0103	-19.61	430.2837	31.1112	-177.9335	-40.3867	447.8348	9.622	384.6818	-21.0171	120.7484	14.2204	325.8796	-0.0592	0.0182	-0.0073	-0.0462	0.0165	0.9585
50.0294	-21.2945	459.2119	32.6496	-189.9838	-42.5848	476.6368	7.2172	352.0227	-18.8386	110.5839	13.414	297.9485	-0.0592	0.0182	-0.0073	-0.0462	0.0165	0.9585
50.0484	-21.8013	483.5786	33.5326	-200.1643	-43.611	500.3549	5.6162	324.3424	-17.2084	101.9695	12.7815	274.1917	-0.0592	0.0182	-0.0073	-0.0462	0.0165	0.9585
50.0675	-21.3332	503.2234	33.9446	-208.389	-43.7434	518.8828	4.7673	301.1556	-16.1157	94.7445	12.3196	254.195	-0.0592	0.0182	-0.0073	-0.0462	0.0165	0.9585
50.0866	-20.1087	518.4589	33.9917	-214.7744	-43.1863	532.5978	4.5572	281.6438	-15.4632	88.6494	11.9803	237.2779	-0.0592	0.0182	-0.0073	-0.0462	0.0165	0.9585
50.1056	-18.3186	530.0129	33.7524	-219.6101	-42.1066	542.3055	4.838	264.8753	-15.1025	83.3942	11.6896	222.6703	-0.0592	0.0182	-0.0073	-0.0462	0.0165	0.9585
50.1247	-16.1371	538.9002	33.3451	-223.3002	-40.7058	549.1041	5.4493	249.899	-14.8845	78.6845	11.3784	209.5938	-0.0592	0.0182	-0.0073	-0.0462	0.0165	0.9585
50.1438	-13.724	546.2819	32.9536	-226.3063	-39.2421	554.2332	6.2326	235.7919	-14.6962	74.2332	11.0075	197.2967	-0.0592	0.0182	-0.0073	-0.0462	0.0165	0.9585
50.1629	-11.23	553.3252	32.7834	-229.094	-37.9865	558.9284	7.0254	221.7734	-14.4718	69.7943	10.5761	185.1453	-0.0592	0.0182	-0.0073	-0.0462	0.0165	0.9585
50.1819	-8.7937	561.0179	32.9962	-232.0629	-37.1587	564.2363	7.672	207.2793	-14.1893	65.1901	10.1163	172.6852	-0.0592	0.0182	-0.0073	-0.0462	0.0165	0.9585
50.201	-6.5369	570.0227	33.6689	-235.4892	-36.8849	570.8716	8.0405	191.9655	-13.8477	60.3129	9.6708	159.6438	-0.0592	0.0182	-0.0073	-0.0462	0.0165	0.9585
50.2201	-4.5684	580.622	34.7874	-239.4993	-37.1936	579.1781	8.0345	175.6948	-13.4557	55.1221	9.2843	145.9112	-0.0592	0.0182	-0.0073	-0.0462	0.0165	0.9585
50.2391	-2.9938	592.7346	36.2679	-244.0724	-38.0396	589.1468	7.6135	158.5437	-13.0254	49.647	8.9883	131.5449	-0.0592	0.0182	-0.0073	-0.0462	0.0165	0.9585
